<?xml version="1.0" encoding="UTF-8" standalone="no"?>
<!-- Created with Inkscape (http://www.inkscape.org/) -->

<svg
   version="1.1"
   id="svg1"
   width="1043"
   height="868"
   viewBox="0 0 1043 868"
   sodipodi:docname="logo-sosb-2026.svg"
   inkscape:version="1.3.2 (091e20e, 2023-11-25, custom)"
   xmlns:inkscape="http://www.inkscape.org/namespaces/inkscape"
   xmlns:sodipodi="http://sodipodi.sourceforge.net/DTD/sodipodi-0.dtd"
   xmlns="http://www.w3.org/2000/svg"
   xmlns:svg="http://www.w3.org/2000/svg">
  <sodipodi:namedview
     id="namedview1"
     pagecolor="#ffffff"
     bordercolor="#000000"
     borderopacity="0.25"
     inkscape:showpageshadow="2"
     inkscape:pageopacity="0.0"
     inkscape:pagecheckerboard="0"
     inkscape:deskcolor="#d1d1d1"
     inkscape:zoom="0.58676894"
     inkscape:cx="521.5"
     inkscape:cy="433.73121"
     inkscape:window-width="1920"
     inkscape:window-height="991"
     inkscape:window-x="-9"
     inkscape:window-y="-9"
     inkscape:window-maximized="1"
     inkscape:current-layer="svg1" />
  <defs
     id="defs1" />
  <g
     id="g1"
     style="fill:#00bf63;fill-opacity:1">
    <path
       style="fill:#00bf63;fill-opacity:1"
       d="M 42.131739,863.9224 C 30.998436,861.7344 20.773116,853.333 16.985635,843.2615 10.589137,826.25241 12.406474,801.58739 21.602217,780.60502 31.48145,758.06308 49.879231,738.38678 70.734861,728.05799 79.58378,723.67555 84.54927,722.62173 96.5,722.58988 c 12.72954,-0.0339 21.71704,2.39463 28.71365,7.75886 6.60147,5.06127 8.28635,9.37269 8.28635,21.20374 0,9.6479 -0.15502,10.36611 -3.85166,17.84518 -8.97705,18.16238 -28.67948,31.02993 -58.8849,38.45738 C 60.65779,810.34 60.007504,810.65123 60.013333,813 c 0.0034,1.375 1.073974,4.79314 2.379025,7.59588 5.655861,12.14654 19.145692,13.34019 40.050512,3.54386 10.41435,-4.88033 16.92238,-9.04341 33.22581,-21.25405 11.00837,-8.24485 13.36813,-10.47989 14.3845,-13.62426 2.5015,-7.73896 10.60224,-22.6354 16.7999,-30.8933 10.55933,-14.06951 27.33298,-26.86962 42.7286,-32.60655 8.61945,-3.2119 27.45838,-3.14389 35.41832,0.12787 3.025,1.24335 6.5362,3.22758 7.80267,4.40939 1.63881,1.52926 2.5132,1.8081 3.03292,0.96719 0.40163,-0.64987 4.51449,-16.72557 9.13967,-35.7238 L 273.38469,661 h 18.37504 c 17.02581,0 18.33795,0.1285 17.8699,1.75 -0.27782,0.9625 -9.32505,37.75 -20.10495,81.75 -10.7799,44 -19.80822,80.6001 -20.06293,81.33356 -0.25471,0.73346 -0.0283,1.18346 0.50304,1 0.53139,-0.18346 10.36025,-8.4093 21.84192,-18.27966 l 20.87576,-17.9461 8.33656,-33.8039 L 329.35559,723 h 18.38959 c 17.05592,0 18.34987,0.12692 17.84179,1.75 -0.3013,0.9625 -5.97487,23.8 -12.60793,50.75 -6.63307,26.95 -12.25275,49.5625 -12.4882,50.25 -0.23544,0.6875 -0.10469,1.24272 0.29054,1.23382 1.72641,-0.0389 42.10219,-36.06285 46.49519,-41.48382 12.55407,-15.49176 23.3029,-37.15367 26.43203,-53.26797 l 1.7914,-9.22533 49.09531,-0.003 49.09531,-0.003 -4.76016,19.58152 c -2.61809,10.76983 -4.91098,19.68689 -5.09531,19.81568 -0.18433,0.12879 -3.74066,2.97903 -7.90296,6.33385 -19.00487,15.31798 -51.04974,54.03367 -48.34535,58.40946 0.29216,0.47272 10.74214,0.85202 23.22218,0.84289 L 493.5,827.9668 514.63631,809.7334 535.77262,791.5 543.4335,761 c 4.21349,-16.775 8.10699,-32.1875 8.65224,-34.25 l 0.99135,-3.75 h 17.96145 c 9.8788,0 17.96146,0.38524 17.96146,0.8561 0,0.47085 -5.63588,23.70997 -12.52419,51.64248 -6.8883,27.93251 -12.33786,50.9727 -12.11013,51.20043 0.22773,0.22774 9.12612,-7.09342 19.77419,-16.26923 L 603.5,793.74649 l 4,-9.22462 c 12.23313,-28.21148 30.21382,-47.32015 54.27994,-57.68508 7.47551,-3.21959 8.1477,-3.32511 21.22006,-3.33085 12.78301,-0.006 13.8043,0.14349 19.22959,2.80762 10.20062,5.0091 14.81323,13.1934 16.85765,29.91107 1.8606,15.21452 -0.64452,34.64412 -6.44993,50.02537 -2.09388,5.54767 -2.27964,6.75 -1.04284,6.75 3.70236,0 17.34628,-8.94883 25.60477,-16.79376 l 5.69923,-5.41384 8.30077,-33.89577 8.30076,-33.89578 18.25,-4.2e-4 c 10.0375,-2.4e-4 18.24229,0.33707 18.23286,0.74957 -0.009,0.4125 -0.88908,4.10785 -1.95478,8.21188 -1.06571,4.10404 -1.81378,7.58575 -1.66239,7.73715 0.1514,0.15139 2.04355,-1.01999 4.20479,-2.60308 7.11671,-5.21292 16.80571,-9.94905 24.84898,-12.14656 6.45067,-1.7624 9.78904,-2.08108 18,-1.71828 12.70363,0.56129 19.54243,3.05347 26.9454,9.81938 7.71443,7.05055 10.13634,12.93936 10.05541,24.44951 -0.0536,7.63107 -1.09208,13.1439 -6.82714,36.2439 -3.72012,14.98415 -6.60282,27.72704 -6.40598,28.31754 0.19683,0.5905 8.23531,-5.89085 17.86328,-14.403 17.38067,-15.36636 17.52565,-15.52893 20.34727,-22.81753 14.76355,-38.13615 49.94804,-65.26605 80.9855,-62.446 24.5005,2.2261 35.8958,13.97313 32.8418,33.85557 -3.7421,24.3616 -25.4801,42.24324 -62.517,51.42624 -6.1644,1.52842 -11.36213,2.86805 -11.55051,2.97696 -0.18839,0.10891 0.4193,2.81888 1.35041,6.02217 2.03952,7.01649 7.54528,12.8683 13.08517,13.90759 1.98377,0.37215 6.76855,0.1545 10.63285,-0.48367 13.48628,-2.22722 27.53278,-9.74647 51.09688,-27.35276 l 14.8228,-11.07509 4.4931,4.49306 4.493,4.49305 -15.8158,15.33069 c -36.6606,35.53598 -52.55672,45.10238 -80.01854,48.15598 -12.83618,1.4273 -23.54831,0.2984 -30.41661,-3.2055 C 901.9194,854.3268 895,841.1051 895,822.95078 895,819.12785 894.63508,816 894.18908,816 c -0.44601,0 -7.06095,6.8625 -14.69986,15.25 -23.51083,25.8148 -28.36264,30.338 -34.49611,32.1594 -6.24527,1.8547 -9.10603,1.9647 -14.21206,0.5466 -8.11647,-2.2542 -13.75122,-10.2444 -13.7204,-19.456 0.009,-2.75 1.58375,-10.85 3.49899,-18 C 826.78303,803.26678 831,784.00586 831,778.81388 c 0,-10.2426 -3.59049,-16.49355 -11.67821,-20.33142 -4.89719,-2.32387 -11.58418,-2.15621 -17.6466,0.44244 -5.33308,2.28603 -13.38657,10.00345 -17.09726,16.38379 -1.61327,2.77394 -5.67695,17.35498 -12.01673,43.11777 -5.26853,21.40954 -10.04245,40.64704 -10.60872,42.75004 L 760.92291,865 H 742.96146 C 733.08266,865 725,864.6053 725,864.123 c 0,-0.4824 2.68174,-11.8256 5.95941,-25.2073 3.27768,-13.3816 5.85475,-24.43487 5.72683,-24.56279 -0.12792,-0.12792 -2.24715,1.14284 -4.70941,2.8239 -6.84524,4.67348 -17.44065,9.52156 -25.14902,11.50728 -6.45473,1.66278 -7.24971,2.17811 -11.1393,7.22083 -8.43088,10.93038 -22.8306,21.34618 -36.28885,26.24908 -4.72342,1.7208 -8.29215,2.1688 -17.89966,2.2472 -13.9142,0.1136 -18.28843,-0.9391 -25.13297,-6.0485 -10.14626,-7.574 -14.3012,-16.2119 -15.25814,-31.72073 L 600.5,816.76394 586.84558,831.63197 c -20.64814,22.48333 -29.66507,30.94703 -34.35804,32.24983 -10.22415,2.8384 -19.63502,-0.034 -24.88899,-7.5967 -4.26775,-6.1432 -4.53046,-12.4516 -1.09519,-26.29866 1.51049,-6.08854 2.54862,-11.26779 2.30696,-11.50946 -0.24167,-0.24166 -5.89471,5.51466 -12.56233,12.79182 -6.66762,7.2772 -15.91735,16.9878 -20.55496,21.5793 C 483.47456,864.945 483.22095,865 439.7059,865 c -21.29538,0 -34.55049,-0.3816 -35.76129,-1.0296 -1.05815,-0.5663 -2.61563,-2.3673 -3.46107,-4.0022 -1.38508,-2.6785 -1.38191,-3.5717 0.032,-9.0283 9.11907,-35.1916 29.48968,-61.92288 66.89355,-87.78087 L 476.31822,757 l -25.40911,0.0297 -25.40911,0.0297 -3.3851,5.91237 c -5.78974,10.11229 -17.56326,24.99266 -30.34524,38.35285 -6.74831,7.05359 -21.49466,22.78696 -32.76966,34.96305 -11.92963,12.88303 -22.46346,23.34983 -25.19653,25.03613 -3.45425,2.1313 -6.39842,3.0344 -11.13071,3.4143 -5.71433,0.4587 -7.01532,0.2002 -11.62834,-2.3105 -3.47237,-1.8899 -5.9967,-4.1965 -7.61525,-6.9583 -3.93454,-6.7138 -4.02112,-11.3442 -0.47381,-25.34066 1.72448,-6.8042 3.00207,-12.50462 2.83909,-12.6676 -0.16297,-0.16297 -7.27089,7.36211 -15.79538,16.72242 C 264.04055,862.6873 260.97067,865 249.09414,865 c -8.74076,0 -16.42397,-5.4093 -19.06967,-13.4259 l -1.14741,-3.4766 -6.68853,4.5999 C 208.52245,862.096 197.57684,865.3898 182,864.7908 168.82741,864.2843 163.23277,862.0541 156.03014,854.4384 148.36585,846.3345 145,836.53245 145,822.31634 145,818.84235 144.72525,816 144.38944,816 c -0.33581,0 -5.39831,4.58052 -11.25,10.17894 C 114.19062,844.3076 97.21276,855.5915 81,860.8321 69.712939,864.4804 52.097817,865.881 42.131739,863.9224 Z M 220.7661,828.11932 c 5.31908,-2.71359 10.82284,-8.40271 13.80276,-14.26762 1.29897,-2.55657 4.67211,-13.80657 7.49586,-25 4.50732,-17.86716 5.07154,-21.22083 4.62169,-27.47101 -0.94936,-13.19024 -6.28073,-19.37825 -16.68641,-19.36757 -7.14594,0.007 -13.60539,3.6331 -21.32261,11.96863 -6.67372,7.2084 -13.764,20.94627 -16.26696,31.51825 -2.25824,9.53835 -2.29599,25.48741 -0.0759,32.07558 1.77182,5.25797 6.32699,10.53998 10.66549,12.36731 3.67662,1.54855 13.04012,0.58745 17.7661,-1.82357 z m 452.96104,1.35022 3.66291,-1.53046 -4.54946,-4.21954 c -2.5022,-2.32075 -6.20339,-6.73131 -8.22486,-9.80125 -4.37498,-6.64412 -10.28057,-22.60457 -11.12999,-30.07991 -1.1901,-10.47344 -1.51058,-10.94276 -3.51972,-5.15437 -4.35168,12.53728 -5.07342,31.33651 -1.52878,39.82004 4.48797,10.7412 14.95978,15.28169 25.2899,10.96549 z m 21.5645,-22.80407 c 10.51257,-22.20289 11.22315,-51.03744 1.51246,-61.37399 -3.00299,-3.19654 -8.03798,-4.58452 -13.77054,-3.7961 -4.32531,0.59489 -5.03543,1.04291 -6.08487,3.83905 -2.09794,5.58978 -2.36267,24.1497 -0.48733,34.16557 2.68852,14.35885 11.04439,32.5 14.96961,32.5 0.73419,0 2.47149,-2.40054 3.86067,-5.33453 z M 74,790.32269 c 13.45486,-4.34031 25.83439,-10.99316 31.9904,-17.19189 3.0756,-3.09694 6.36095,-7.27381 7.3008,-9.28193 2.1175,-4.52439 2.2059,-11.98691 0.18819,-15.88872 -3.14262,-6.07716 -14.658,-8.8726 -22.70279,-5.51127 -6.09002,2.54457 -13.38946,9.18862 -18.516116,16.8536 -5.392447,8.06237 -11.062,22.27974 -11.987433,30.06051 l -0.578396,4.86299 3.402672,-0.74196 C 64.968797,793.07594 69.875,791.65334 74,790.32269 Z m 881.5,-0.0455 c 14.79247,-4.60833 24.2566,-9.82183 32.1556,-17.71361 7.8108,-7.80358 10.0012,-12.63035 9.0271,-19.89269 -1.3844,-10.32155 -14.7571,-14.92634 -26.44013,-9.10445 -5.90887,2.94451 -14.18699,11.507 -19.10783,19.76422 -3.65864,6.13922 -8.55344,19.58598 -9.65434,26.52194 l -0.69085,4.35256 3.35522,-0.71786 C 945.99015,793.09245 951.1,791.6479 955.5,790.27716 Z M 351,699.33113 c -6.6321,-2.72492 -11.00089,-9.49405 -10.99845,-17.04129 0.002,-5.97735 2.37997,-10.75384 7.31888,-14.70061 3.34566,-2.67359 4.60752,-3.05524 10.1541,-3.07111 5.60726,-0.016 6.77476,0.33811 10.17957,3.0879 5.24795,4.23835 7.56609,8.54272 7.63955,14.18528 0.0773,5.93951 -2.56678,11.5525 -7.05442,14.9754 -2.74632,2.09472 -4.77073,2.70931 -9.60927,2.91727 -3.37148,0.14491 -6.80496,-0.0139 -7.62996,-0.35284 z m 222.45042,-0.73773 c -9.76652,-4.25403 -13.14953,-17.60497 -6.79295,-26.80823 11.03111,-15.9712 35.54947,-4.69318 31.91498,14.68033 -0.81523,4.34556 -5.8748,10.34506 -10.27471,12.18346 -4.07026,1.70066 -10.87379,1.67521 -14.84732,-0.0556 z M 8.003609,551.75 8.007209,500.5 19.7536,491.03289 C 48.260518,468.05748 111.52757,414.20648 142.5,386.55488 215.38374,321.48565 257.30737,263.7557 266.49094,215.8161 271.37712,190.3095 268.27382,163.85534 258.47686,147.5 247.83424,129.7329 231.03516,121 207.5,121 c -17.90258,0 -30.47881,4.4977 -41.79455,14.9472 -14.82192,13.68727 -22.29925,31.9 -24.89476,60.63683 L 139.59896,210 H 73.145009 6.69106 L 7.329566,197.25 C 11.821064,107.56155 58.447605,41.35875 134.9417,16.05961 162.80474,6.84438 187.77853,3.46708 221.5,4.35401 c 24.9466,0.65614 39.46914,2.36601 57.5,6.76998 31.78169,7.76257 56.3467,20.66297 76.81633,40.34036 28.60171,27.49474 44.19051,59.58443 50.2964,103.53565 1.54654,11.13218 1.55973,43.94947 0.0225,56 -5.80942,45.54133 -22.88929,86.71187 -52.73991,127.12803 -2.69244,3.64542 -11.02346,13.77042 -18.51339,22.5 C 298.88187,402.58647 260.9125,438.75286 209.5,480.05617 l -13,10.44383 75.32849,0.25635 c 41.43067,0.14099 108.77699,0.14099 149.65849,0 l 74.33,-0.25635 -8.32548,-11.21815 C 439.40225,414.48414 419.80897,331.81851 433.50299,251.5 444.03976,189.69953 471.55581,136.45399 515.968,91.92425 534.73512,73.10746 543.32669,66.00045 564.18655,52.03754 599.28061,28.54672 641.28664,12.62152 686,5.85599 c 13.3828,-2.02493 19.18803,-2.34288 42.5,-2.3277 29.01519,0.0189 41.26026,1.30947 67.34902,7.09826 83.50669,18.52916 158.28911,76.79271 198.04018,154.29461 23.5418,45.8991 34.0344,92.01298 32.7831,144.07884 -0.5744,23.90376 -2.3605,38.9515 -7.1666,60.38051 -20.688,92.24114 -88.25491,172.22903 -176.24112,208.63994 l -11.76458,4.86849 -1.70954,-9.06957 c -2.27515,-12.0703 -5.91923,-23.03734 -11.9836,-36.06522 l -5.0021,-10.74586 0.11849,-10.78385 0.11848,-10.78386 -4.6483,-9.47029 c -4.12448,-8.40308 -4.6745,-10.31547 -4.88078,-16.97029 -0.27902,-9.00098 -1.70212,-12.56165 -8.24678,-20.63383 -3.53949,-4.36562 -5.1729,-7.38332 -5.6662,-10.46822 -1.35432,-8.46944 -10.8518,-23.93753 -18.08546,-29.45491 L 768,415.76262 v -8.54342 c 0,-5.21697 -0.65365,-10.61704 -1.6788,-13.86918 -0.92334,-2.92916 -1.40135,-5.6032 -1.06225,-5.9423 0.76929,-0.76929 13.8954,6.37168 23.35326,12.70481 3.91171,2.61935 9.08671,7.0754 11.5,9.90234 10.15499,11.89563 12.80896,14.62128 21.04568,21.61415 10.76396,9.13847 13.06079,10.1523 16.10452,7.10857 1.2246,-1.2246 2.81977,-2.09032 3.54482,-1.92382 3.8756,0.88999 17.76185,-11.1672 16.53709,-14.35887 -0.33554,-0.8744 -0.056,-2.62504 0.62111,-3.89031 1.81835,-3.39761 -0.3102,-12.46508 -4.02276,-17.13673 C 852.3242,399.39128 851,396.9044 851,395.90145 c 0,-4.21232 -7.57519,-7.76065 -23.26258,-10.89654 -11.96323,-2.39143 -24.28346,-10.55855 -42.0601,-27.88176 -10.56095,-10.29157 -10.90389,-11.03601 -8.91444,-19.35081 1.47493,-6.16438 1.46592,-7.18116 -0.12192,-13.75977 -2.08632,-8.6439 -1.79221,-10.66679 4.07274,-28.01257 l 4.56461,-13.5 -0.62046,-13.75 c -0.34125,-7.5625 -0.27134,-13.75 0.15536,-13.75 0.42671,0 2.7096,16.0875 5.07311,35.75 2.3635,19.6625 4.54297,36.81517 4.84326,38.11704 0.50437,2.18663 0.89443,2.31928 5.1178,1.7404 2.5145,-0.34465 4.9655,-1.02032 5.44666,-1.50148 0.4998,-0.4998 -1.38225,-17.81164 -4.39006,-40.38158 l -5.2649,-39.50674 2.68046,-3.18554 C 799.79379,244.28004 801,242.18562 801,241.37782 c 0,-2.21915 -4.38483,-6.14787 -8.86017,-7.93855 -4.81607,-1.92701 -6.42983,-5.33193 -8.17109,-17.24047 C 782.54968,206.49377 782.94195,205 786.9096,205 c 1.6348,0 3.25707,-0.46066 3.60504,-1.02369 0.82503,-1.33493 -2.50964,-10.15567 -4.37576,-11.57461 -0.79444,-0.60406 -1.1135,-1.63375 -0.70903,-2.28819 0.40447,-0.65445 0.16333,-3.42199 -0.53586,-6.15009 -1.25023,-4.87812 -1.22264,-5.01102 1.66737,-8.03186 6.23729,-6.51963 8.16213,-7.11977 20.35976,-6.34794 14.30728,0.90532 16.07888,0.008 16.07888,-8.14186 0,-3.39163 0.62173,-6.46101 1.61617,-7.97871 0.88889,-1.35662 1.37229,-3.39919 1.07421,-4.53903 -0.33638,-1.28633 0.18853,-2.80293 1.38383,-3.99823 C 828.1334,143.8666 829,141.69814 829,140.10699 829,137.06881 830.43402,136 834.51036,136 c 1.29073,0 3.07745,-0.73067 3.97049,-1.62371 2.04468,-2.04467 1.33182,-5.76574 -2.60495,-13.59777 -3.06931,-6.10628 -3.51331,-9.6516 -1.81781,-14.51532 l 1.0581,-3.03525 9.89705,-0.39752 c 10.948,-0.43973 12.09474,-1.02381 18.12229,-9.23047 3.12581,-4.25586 3.65289,-7.70074 1.45707,-9.52311 -0.77407,-0.64242 -7.07942,-2.03873 -14.01188,-3.10291 -6.93247,-1.06418 -13.93343,-2.62209 -15.55771,-3.46204 -1.84633,-0.95477 -4.87281,-4.66847 -8.07475,-9.90825 -10.18892,-16.67356 -16.79933,-21.01721 -34.65587,-22.77208 -16.1775,-1.58987 -15.82395,-1.64703 -28.49207,4.60657 -18.02814,8.89955 -25.32839,17.88242 -27.40974,33.72735 -0.47151,3.58946 -1.34056,5.7874 -2.65665,6.71896 -1.67601,1.18632 -1.86203,2.11653 -1.29982,6.5 0.36086,2.81355 1.23804,5.56555 1.9493,6.11555 0.88844,0.68702 1.48834,5.34387 1.91671,14.87906 l 0.62353,13.87905 -7.5084,-0.48186 c -5.46438,-0.35068 -9.32739,0.0225 -14.19018,1.37095 -11.91311,3.3034 -13.81954,2.18818 -10.76765,-6.29886 1.25462,-3.48898 1.65173,-6.91082 1.37349,-11.83508 -0.68552,-12.13193 -5.73736,-16.6296 -29.25639,-26.04708 -17.34431,-6.945 -21.99745,-6.99087 -39.57452,-0.39012 -5.225,1.96215 -13.55,4.45959 -18.5,5.54987 -18.77638,4.13564 -26.53266,7.80609 -31.21567,14.77195 -3.00024,4.46279 -2.88351,7.34061 0.69096,17.0351 l 2.97529,8.06942 -8.60503,8.2488 c -8.75471,8.39228 -19.47546,20.85121 -20.62576,23.96986 -0.90851,2.46311 1.85684,4.77894 5.70658,4.77894 2.67847,0 4.23159,-1.00245 8.42857,-5.44014 2.82978,-2.99208 5.14506,-5.17869 5.14506,-4.85914 0,0.31956 -4.22349,8.05512 -9.38554,17.19014 -16.47035,29.14677 -21.71822,41.25269 -24.97333,57.60914 -1.83555,9.22337 -3.6354,26.14718 -3.65375,34.35595 -0.0125,5.56992 -0.0833,5.70607 -5.3972,10.36597 -8.7156,7.64301 -11.05247,14.71945 -8.50786,25.76324 0.85849,3.72589 0.65274,5.94431 -1.21542,13.10475 -2.05256,7.86725 -2.12302,8.95022 -0.80719,12.40744 1.90671,5.00971 6.21656,8.34818 8.41827,6.52092 0.8637,-0.7168 1.83189,-1.04173 2.15154,-0.72208 0.31966,0.31966 -0.631,6.26689 -2.11257,13.21607 -2.52441,11.84057 -2.5887,12.75097 -1.02268,14.4814 1.48844,1.64471 11.15987,4.78642 11.91041,3.86903 0.16319,-0.19948 1.5027,-8.46269 2.97668,-18.36269 1.47398,-9.9 2.93579,-19.27789 3.24847,-20.83975 0.56388,-2.81664 0.64707,-2.76329 10.21934,6.55359 5.30796,5.16634 10.83421,10.29142 12.28056,11.38907 l 2.62972,1.99572 2.69779,55.95068 c 1.48378,30.77288 3.0004,56.20392 3.37027,56.51343 0.36987,0.30951 3.48499,0.15772 6.92249,-0.3373 l 6.25,-0.90006 v -4.18282 c 0,-4.67812 -5.65613,-85.80935 -6.43306,-92.27551 l -0.49659,-4.13294 8.96488,2.88294 C 606.42454,364.49333 609.73316,365 617.86112,365 h 9.86102 l -1.05591,3.95597 c -0.90489,3.39017 -0.78924,4.25063 0.80864,6.01626 1.8303,2.02246 1.76182,2.38592 -3.72992,19.79403 l -5.59446,17.73374 -0.64115,22.62439 c -0.70428,24.85205 -0.23639,27.85876 4.85423,31.19426 3.08171,2.01921 3.28008,3.31264 0.90977,5.93181 -1.64109,1.81338 -1.6163,2.09971 0.5,5.77686 2.7791,4.8288 2.77278,5.02683 -0.27311,8.56714 -2.9712,3.45349 -4.57844,8.67937 -8.68756,28.24725 -4.0711,19.38687 -4.15877,25.11009 -0.49291,32.17641 1.55087,2.98946 2.39944,5.57548 1.88571,5.74672 -3.49865,1.16622 -10.52332,6.77842 -12.59794,10.06483 C 601.1923,566.65563 597,577.97729 597,580.67384 c 0,0.73895 -2.52044,4.08514 -5.60097,7.43599 -3.08054,3.35085 -6.47659,8.07194 -7.5468,10.49131 L 581.90641,603 H 294.95321 8 Z M 709,600.35648 c -11.46894,-1.05989 -24.73641,-2.56829 -26.19066,-2.97766 -1.47685,-0.41574 -1.14309,-1.76604 2.63912,-10.67737 2.38138,-5.6108 8.42967,-18.87625 13.44066,-29.47879 5.01098,-10.60254 9.11088,-19.71504 9.11088,-20.25 0,-2.24094 1.76039,-0.60583 5.68171,5.27734 5.20525,7.80946 10.11304,17.67924 15.39329,30.95661 2.25145,5.66136 6.07891,14.23089 8.50545,19.04339 l 4.4119,8.75 -14.74617,-0.16004 C 719.13578,600.75194 710.925,600.53437 709,600.35648 Z M 829.10359,423.4652 C 827.39662,421.52107 826,419.69042 826,419.39711 c 0,-1.06737 6.03259,3.79527 7.03722,5.67243 1.68488,3.14823 -0.56734,2.22966 -3.93363,-1.60434 z M 534.64612,324.25 c -2.34573,-4.59049 -2.89433,-9.11002 -2.16648,-17.84786 0.65492,-7.86223 0.91733,-8.5875 4.56659,-12.62184 3.15189,-3.48448 3.88136,-3.90845 3.92347,-2.2803 0.12735,4.92358 -3.43518,35.5 -4.13618,35.5 -0.43019,0 -1.41452,-1.2375 -2.1874,-2.75 z m 252.3995,-82.91913 c -2.55994,-3.25444 -2.21602,-4.73265 1.19566,-5.13901 2.89117,-0.34436 4.37312,2.29698 3.25872,5.80814 -0.85176,2.68365 -1.94643,2.51921 -4.45438,-0.66913 z M 946.23559,86.05007 C 940.82315,84.71808 935.40294,80.46381 933.12616,75.76061 923.41712,55.7044 938.52401,20.69593 961.6044,9.7656 967.83027,6.81717 969.39026,6.5 977.6662,6.5 c 7.9373,0 9.5742,0.30165 12.2095,2.25 1.6738,1.2375 3.2552,2.25 3.5143,2.25 0.259,0 0.6147,-1.0125 0.7904,-2.25 0.3046,-2.14429 0.8012,-2.26339 10.5696,-2.53498 5.7663,-0.16032 10.25,0.11675 10.25,0.6334 0,0.50511 -3.1354,13.66042 -6.9676,29.23402 -3.8322,15.57359 -6.7819,28.50138 -6.5549,28.72841 0.227,0.22703 5.6722,-4.18011 12.1003,-9.79365 l 11.6875,-10.20643 2.512,2.51194 2.5119,2.51194 -14.7733,16.08064 c -8.1253,8.84435 -16.3302,17.04292 -18.2332,18.21904 -6.5067,4.02136 -14.7498,2.08722 -18.031,-4.23073 -1.4564,-2.80429 -1.8825,-2.77247 -6.70579,0.50068 -6.75938,4.58704 -19.50177,7.32136 -26.31032,5.64579 z m 28.34597,-21.10048 c 1.82474,-1.12772 4.27484,-3.5992 5.44474,-5.49218 C 983.0445,54.57393 988,34.89232 988,27.78872 c 0,-5.23477 -0.3482,-6.29072 -2.9231,-8.86564 -7.0084,-7.00841 -18.15219,-0.59534 -25.19681,14.50035 -5.55992,11.91418 -5.16862,26.84465 0.82716,31.56093 3.366,2.6477 9.55911,2.63218 13.87431,-0.0348 z"
       id="path1" />
  </g>
</svg>
