<?xml version="1.0" encoding="UTF-8" standalone="no"?>
<!-- Created with Inkscape (http://www.inkscape.org/) -->

<svg
   version="1.1"
   id="svg1"
   width="1025"
   height="607"
   viewBox="0 0 1025 607"
   xmlns="http://www.w3.org/2000/svg"
   xmlns:svg="http://www.w3.org/2000/svg">
  <defs
     id="defs1" />
  <g
     id="g1">
    <path
       style="fill:#00bf63;fill-opacity:1"
       d="m 3.7683146,553.39705 0.0036,-51.25 11.7463914,-9.46711 C 44.025221,469.70453 107.29228,415.85353 138.26471,388.20193 211.14844,323.1327 253.07208,265.40275 262.25565,217.46314 c 4.88618,-25.50659 1.78287,-51.96075 -8.01409,-68.31609 -10.64261,-17.7671 -27.44169,-26.5 -50.97685,-26.5 -17.90259,0 -30.47881,4.4977 -41.79455,14.9472 -14.82192,13.68727 -22.29925,31.9 -24.89476,60.63683 l -1.21174,13.41597 H 68.909711 2.4557656 l 0.638506,-12.75 C 7.5857696,109.2086 54.212311,43.005802 130.70641,17.706662 c 27.86303,-9.21523 52.83682,-12.5925296 86.5583,-11.7055996 24.94659,0.65614 39.46914,2.3660096 57.5,6.7699796 31.78168,7.76257 56.3467,20.66297 76.81633,40.34036 28.60171,27.49474 44.1905,59.584428 50.2964,103.535648 1.54653,11.13218 1.55973,43.94947 0.0225,56 -5.80942,45.54132 -22.8893,86.71186 -52.73991,127.12803 -2.69244,3.64542 -11.02347,13.77042 -18.51339,22.5 -36.00008,41.95844 -73.96946,78.12482 -125.38195,119.42814 l -13,10.44383 75.32848,0.25634 c 41.43067,0.14099 108.77699,0.14099 149.6585,0 l 74.33,-0.25634 -8.32549,-11.21815 C 435.16696,416.13119 415.57367,333.46555 429.2677,253.14705 c 10.53676,-61.80047 38.05281,-115.04602 82.46501,-159.575748 18.76711,-18.81679 27.35869,-25.9238 48.21854,-39.88671 35.09407,-23.49082 77.1001,-39.41602 121.81346,-46.1815396 13.38279,-2.02494 19.18802,-2.34289 42.5,-2.32771 29.01518,0.0189 41.26025,1.30947 67.34901,7.0982596 83.5067,18.52916 158.28915,76.79271 198.04015,154.294608 23.54193,45.8991 34.03443,92.01298 32.78313,144.07884 -0.5744,23.90376 -2.3605,38.9515 -7.1666,60.38051 -20.68803,92.24114 -88.25491,172.22903 -176.24111,208.63992 l -11.76458,4.8685 -1.70954,-9.06956 c -2.27516,-12.0703 -5.91924,-23.03734 -11.9836,-36.06523 l -5.0021,-10.74585 0.11848,-10.78385 0.11849,-10.78386 -4.6483,-9.47029 c -4.12448,-8.40308 -4.6745,-10.31547 -4.88079,-16.97029 -0.27901,-9.00098 -1.70211,-12.56165 -8.24677,-20.63384 -3.5395,-4.36561 -5.17291,-7.38332 -5.6662,-10.46822 -1.35432,-8.46943 -10.85181,-23.93752 -18.08546,-29.4549 l -3.51421,-2.68042 v -8.54342 c 0,-5.21697 -0.65366,-10.61704 -1.6788,-13.86918 -0.92334,-2.92917 -1.40136,-5.6032 -1.06226,-5.9423 0.76929,-0.76929 13.8954,6.37168 23.35326,12.70481 3.91172,2.61935 9.08672,7.0754 11.5,9.90234 10.155,11.89563 12.80897,14.62128 21.04568,21.61415 10.76397,9.13847 13.0608,10.1523 16.10453,7.10856 1.2246,-1.2246 2.81977,-2.09032 3.54482,-1.92382 3.87559,0.89 17.76184,-11.16719 16.53709,-14.35886 -0.33554,-0.8744 -0.056,-2.62504 0.62111,-3.89032 1.81834,-3.3976 -0.3102,-12.46507 -4.02276,-17.13672 -1.61847,-2.03658 -2.94267,-4.52346 -2.94267,-5.52641 0,-4.21232 -7.57519,-7.76065 -23.26258,-10.89654 -11.96323,-2.39143 -24.28346,-10.55855 -42.0601,-27.88176 -10.56095,-10.29157 -10.90389,-11.03601 -8.91444,-19.35081 1.47492,-6.16439 1.46591,-7.18116 -0.12192,-13.75977 -2.08632,-8.6439 -1.79221,-10.66679 4.07273,-28.01257 l 4.56461,-13.5 -0.62045,-13.75 c -0.34126,-7.5625 -0.27134,-13.75 0.15536,-13.75 0.4267,0 2.7096,16.0875 5.0731,35.75 2.36351,19.6625 4.54298,36.81517 4.84327,38.11704 0.50437,2.18663 0.89443,2.31928 5.1178,1.7404 2.5145,-0.34465 4.96549,-1.02032 5.44666,-1.50148 0.49979,-0.4998 -1.38226,-17.81164 -4.39006,-40.38158 l -5.2649,-39.50674 2.68046,-3.18555 c 1.47425,-1.75205 2.68046,-3.84647 2.68046,-4.65427 0,-2.21915 -4.38483,-6.14787 -8.86018,-7.93855 -4.81607,-1.92701 -6.42982,-5.33193 -8.17108,-17.24048 -1.41907,-9.70503 -1.0268,-11.19879 2.94085,-11.19879 1.63481,0 3.25708,-0.46066 3.60505,-1.02369 0.82503,-1.33493 -2.50964,-10.15567 -4.37577,-11.57461 -0.79443,-0.60406 -1.1135,-1.63375 -0.70903,-2.28819 0.40447,-0.65445 0.16333,-3.42199 -0.53586,-6.15009 -1.25022,-4.87812 -1.22263,-5.01102 1.66738,-8.03186 6.23729,-6.51963 8.16213,-7.11978 20.35976,-6.34795 14.30727,0.90532 16.07888,0.008 16.07888,-8.14185 0,-3.39163 0.62173,-6.46101 1.61616,-7.97871 0.8889,-1.35663 1.37229,-3.39919 1.07422,-4.53903 -0.33639,-1.28633 0.18853,-2.80293 1.38383,-3.99823 1.05918,-1.05919 1.92579,-3.22765 1.92579,-4.8188 0,-3.03818 1.43402,-4.10699 5.51035,-4.10699 1.29074,0 3.07746,-0.73067 3.9705,-1.62371 2.04467,-2.04468 1.33182,-5.76575 -2.60495,-13.59777 -3.06932,-6.10628 -3.51331,-9.6516 -1.81781,-14.51532 l 1.05809,-3.03525 9.89705,-0.39752 c 10.94801,-0.43973 12.09475,-1.02382 18.1223,-9.230468 3.12581,-4.25586 3.65288,-7.70074 1.45706,-9.52311 -0.77407,-0.64242 -7.07942,-2.03873 -14.01188,-3.10291 -6.93246,-1.06418 -13.93343,-2.62209 -15.5577,-3.46204 -1.84633,-0.95477 -4.87282,-4.66847 -8.07475,-9.90825 -10.18892,-16.67356 -16.79934,-21.01721 -34.65587,-22.77208 -16.17751,-1.58987 -15.82395,-1.64703 -28.49207,4.60657 -18.02814,8.89955 -25.32839,17.88242 -27.40975,33.72735 -0.4715,3.58946 -1.34056,5.7874 -2.65665,6.71896 -1.676,1.18632 -1.86202,2.11653 -1.29981,6.499998 0.36086,2.81355 1.23804,5.56555 1.94929,6.11555 0.88845,0.68702 1.48834,5.34386 1.91672,14.87906 l 0.62353,13.87905 -7.5084,-0.48186 c -5.46439,-0.35068 -9.32739,0.0225 -14.19019,1.37095 -11.9131,3.3034 -13.81954,2.18817 -10.76764,-6.29886 1.25462,-3.48898 1.65173,-6.91082 1.37348,-11.83508 -0.68551,-12.13193 -5.73735,-16.6296 -29.25639,-26.047078 -17.34431,-6.945 -21.99744,-6.99087 -39.57451,-0.39012 -5.225,1.96215 -13.55,4.45959 -18.5,5.54987 -18.77638,4.135638 -26.53267,7.806088 -31.21568,14.771948 -3.00024,4.46279 -2.88351,7.3406 0.69097,17.0351 l 2.97529,8.06942 -8.60503,8.2488 c -8.75471,8.39228 -19.47547,20.85121 -20.62577,23.96986 -0.90851,2.46311 1.85685,4.77894 5.70659,4.77894 2.67846,0 4.23158,-1.00245 8.42857,-5.44014 2.82978,-2.99208 5.14506,-5.17869 5.14506,-4.85914 0,0.31955 -4.2235,8.05512 -9.38555,17.19014 -16.47035,29.14677 -21.71821,41.25269 -24.97333,57.60914 -1.83555,9.22337 -3.63539,26.14718 -3.65374,34.35595 -0.0125,5.56992 -0.0833,5.70607 -5.39721,10.36597 -8.71559,7.643 -11.05246,14.71944 -8.50785,25.76324 0.85848,3.72589 0.65273,5.9443 -1.21543,13.10475 -2.05256,7.86725 -2.12301,8.95022 -0.80719,12.40744 1.90671,5.00971 6.21656,8.34818 8.41828,6.52092 0.86369,-0.7168 1.83188,-1.04174 2.15154,-0.72208 0.31966,0.31965 -0.631,6.26689 -2.11257,13.21607 -2.52442,11.84056 -2.58871,12.75097 -1.02269,14.4814 1.48844,1.64471 11.15988,4.78642 11.91041,3.86903 0.1632,-0.19948 1.50271,-8.46269 2.97669,-18.36269 1.47398,-9.9 2.93579,-19.27789 3.24847,-20.83976 0.56387,-2.81663 0.64706,-2.76328 10.21933,6.5536 5.30796,5.16634 10.83421,10.29142 12.28056,11.38906 l 2.62973,1.99573 2.69778,55.95068 c 1.48378,30.77288 3.00041,56.20392 3.37028,56.51343 0.36987,0.30951 3.48499,0.15772 6.92249,-0.33731 l 6.25,-0.90005 v -4.18282 c 0,-4.67812 -5.65613,-85.80936 -6.43307,-92.27551 l -0.49659,-4.13294 8.96488,2.88294 c 7.38932,2.37628 10.69793,2.88295 18.8259,2.88295 h 9.86101 l -1.0559,3.95596 c -0.90489,3.39018 -0.78924,4.25064 0.80863,6.01627 1.83031,2.02246 1.76182,2.38592 -3.72992,19.79403 l -5.59446,17.73374 -0.64114,22.62439 c -0.70428,24.85205 -0.2364,27.85875 4.85422,31.19426 3.08172,2.01921 3.28009,3.31264 0.90977,5.93181 -1.64108,1.81338 -1.6163,2.09971 0.5,5.77686 2.7791,4.82879 2.77279,5.02683 -0.27311,8.56714 -2.9712,3.45349 -4.57844,8.67937 -8.68755,28.24725 -4.0711,19.38687 -4.15877,25.11009 -0.49291,32.17641 1.55086,2.98945 2.39943,5.57548 1.8857,5.74672 -3.49864,1.16622 -10.52332,6.77841 -12.59794,10.06483 -2.41522,3.82595 -6.60752,15.14766 -6.60752,17.84416 0,0.739 -2.52044,4.0852 -5.60098,7.436 -3.08053,3.3509 -6.47659,8.0719 -7.54679,10.4913 l -1.94582,4.3989 H 290.71791 3.7647056 Z M 704.76471,602.00358 c -11.46895,-1.0599 -24.73642,-2.5683 -26.19066,-2.9777 -1.47685,-0.4157 -1.1431,-1.766 2.63912,-10.6774 2.38137,-5.6108 8.42967,-18.87623 13.44065,-29.47877 5.01099,-10.60254 9.11089,-19.71504 9.11089,-20.25 0,-2.24094 1.76038,-0.60584 5.68171,5.27734 5.20525,7.80946 10.11304,17.67924 15.39328,30.95661 2.25146,5.66132 6.07891,14.23092 8.50546,19.04342 l 4.4119,8.75 -14.74618,-0.1601 c -8.11039,-0.088 -16.32117,-0.3056 -18.24617,-0.4834 z M 824.8683,425.11225 c -1.70698,-1.94414 -3.10359,-3.77478 -3.10359,-4.06809 0,-1.06737 6.03259,3.79527 7.03721,5.67243 1.68488,3.14823 -0.56733,2.22966 -3.93362,-1.60434 z m -294.45748,-99.2152 c -2.34572,-4.59049 -2.89433,-9.11002 -2.16647,-17.84786 0.65492,-7.86223 0.91732,-8.5875 4.56659,-12.62185 3.15188,-3.48448 3.88136,-3.90844 3.92347,-2.28029 0.12735,4.92358 -3.43518,35.5 -4.13619,35.5 -0.43018,0 -1.41451,-1.2375 -2.1874,-2.75 z m 252.39951,-82.91913 c -2.55994,-3.25444 -2.21602,-4.73265 1.19565,-5.13901 2.89117,-0.34436 4.37313,2.29698 3.25873,5.80814 -0.85176,2.68365 -1.94644,2.5192 -4.45438,-0.66913 z"
       id="path1" />
  </g>
</svg>
